<?xml version="1.0" standalone="no"?><!DOCTYPE svg PUBLIC "-//W3C//DTD SVG 1.1//EN" 	"http://www.w3.org/Graphics/SVG/1.1/DTD/svg11.dtd"><svg width="1920" height="911" version="1.1"	xmlns="http://www.w3.org/2000/svg"><title>Krona (snapshot) - Root</title><defs>	<style type="text/css">	text {font-size: 11px; font-family: sans-serif; dominant-baseline:central}	path {stroke-width:0.27499999999999997;}	path.wedge {stroke:none}	path.line {fill:none;stroke:black;}	line {stroke:black;stroke-width:0.27499999999999997;}	line.tick {stroke-width:0.5499999999999999;}	line.pattern {stroke-width:0.18333333333333332;}	circle {fill:none;stroke:black;stroke-width:0.27499999999999997;}	rect {stroke:black;stroke-width:0.27499999999999997;}	.highlight {stroke:black;stroke-width:1.375;}	.searchHighlight {fill:rgb(255, 255, 100);stroke:none;}	</style><pattern id="hiddenPattern" patternUnits="userSpaceOnUse" x="0" y="0" width="6.6" height="6.6"><line class="pattern" x1="0" y1="0" x2="3.3" y2="3.3"/><line class="pattern" x1="3.3" y1="6.6" x2="6.6" y2="3.3"/></pattern></defs><path class="wedge" fill="rgb(220,220,220)" d=" M 971.6301209518214,440.0331921886641 L 1243.7274553959512,391.4533549266953 A 364.4,364.4 0 0,1 885.0000000000001,819.9 L 885,543.5 A 88,88 0 0 0 971.6301209518214,440.0331921886641 Z "/><path class="wedge" fill="rgb(207,111,111)" d=" M 885,543.5 L 885,819.9 A 364.4,364.4 0 1,1 1225.1047547744588,324.6714259811515 L 967.1328716250065,423.90583283847786 A 88,88 0 1 0 885,543.5 Z "/><path class="wedge" fill="rgb(207,111,111)" d=" M 998.1855892365699,358.97782370955713 L 1162.2702346380993,219.0500539570091 A 364.4,364.4 0 0,1 1225.1047547744588,324.6714259811515 L 1023.8355195124022,402.0939455829752 A 148.75317854309148,148.75317854309148 0 0 0 998.1855892365699,358.97782370955713 Z "/><path class="wedge" fill="rgb(210,121,121)" d=" M 885,604.2531785430915 L 885,819.9 A 364.4,364.4 0 1,1 1093.100320232808,156.36521981052965 L 969.9494623777865,333.38899734914185 A 148.75317854309148,148.75317854309148 0 1 0 885,604.2531785430915 Z "/><path class="wedge" fill="rgb(210,121,121)" d=" M 874.6979313516237,265.85424261466386 L 865.233952795044,91.63647698911694 A 364.4,364.4 0 0,1 1093.100320232808,156.36521981052965 L 993.4619379159407,299.5908792398204 A 189.92536932356782,189.92536932356782 0 0 0 874.6979313516237,265.85424261466386 Z "/><path class="wedge" fill="rgb(213,130,130)" d=" M 885,645.4253693235678 L 885,819.9 A 364.4,364.4 0 0,1 741.7528149427078,120.43641801418966 L 810.339532034666,280.86477893651875 A 189.92536932356782,189.92536932356782 0 0 0 885,645.4253693235678 Z "/><path class="wedge" fill="rgb(216,140,140)" d=" M 885,675.1125879944016 L 885,819.9 A 364.4,364.4 0 0,1 673.307377535821,158.8965718434148 L 757.4194163592751,276.7463049794752 A 219.61258799440154,219.61258799440154 0 0 0 885,675.1125879944016 Z "/><path class="wedge" fill="rgb(216,140,140)" d=" M 704.8914014403583,293.85313865711043 L 613.8062999606732,212.10456647878618 A 364.4,364.4 0 0,1 673.307377535821,158.8965718434148 L 744.4080114991258,258.51597063087695 A 242.0099482606562,242.0099482606562 0 0 0 704.8914014403583,293.85313865711043 Z "/><path class="wedge" fill="rgb(219,149,149)" d=" M 885,697.5099482606562 L 885,819.9 A 364.4,364.4 0 0,1 602.6626999735543,225.12420045982094 L 697.4905725261979,302.49990305371557 A 242.0099482606562,242.0099482606562 0 0 0 885,697.5099482606562 Z "/><path class="wedge" fill="rgb(219,149,149)" d=" M 629.1124351145278,412.35739664391554 L 525.6713348535934,394.91724334349294 A 364.4,364.4 0 0,1 602.6626999735543,225.12420045982094 L 683.9400479623031,291.4432239316028 A 259.49899823960243,259.49899823960243 0 0 0 629.1124351145278,412.35739664391554 Z "/><path class="wedge" fill="rgb(223,159,159)" d=" M 885,714.9989982396024 L 885,819.9 A 364.4,364.4 0 0,1 521.6679916550498,483.37851703418005 L 626.2615472176251,475.3530385367053 A 259.49899823960243,259.49899823960243 0 0 0 885,714.9989982396024 Z "/><path class="wedge" fill="rgb(223,159,159)" d=" M 708.6460550274132,664.5870479910352 L 650.0582561559597,734.0493439222598 A 364.4,364.4 0 0,1 521.6679916550498,483.37851703418005 L 612.2726763747048,476.4264065998709 A 273.5289884911645,273.5289884911645 0 0 0 708.6460550274132,664.5870479910352 Z "/><path class="wedge" fill="rgb(226,168,168)" d=" M 885,729.0289884911645 L 885,819.9 A 364.4,364.4 0 0,1 696.4314764883496,767.31608672523 L 743.455111148699,689.5580098716393 A 273.5289884911645,273.5289884911645 0 0 0 885,729.0289884911645 Z "/><path class="wedge" fill="rgb(226,168,168)" d=" M 755.8283022931699,709.5816010200724 L 719.859601606839,780.3322779813423 A 364.4,364.4 0 0,1 696.4314764883496,767.31608672523 L 737.5029819894215,699.4004246477956 A 285.0312043713599,285.0312043713599 0 0 0 755.8283022931699,709.5816010200724 Z "/><path class="wedge" fill="rgb(229,178,178)" d=" M 885,740.5312043713599 L 885,819.9 A 364.4,364.4 0 0,1 780.9957702327405,804.7427238905902 L 803.6485980508298,728.6752859727476 A 285.0312043713599,285.0312043713599 0 0 0 885,740.5312043713599 Z "/><path class="wedge" fill="rgb(229,178,178)" d=" M 815.3131883293217,741.7710287342884 L 798.8112256211479,809.5605247285714 A 364.4,364.4 0 0,1 780.9957702327405,804.7427238905902 L 800.9087337651791,737.8756585763667 A 294.63087688396195,294.63087688396195 0 0 0 815.3131883293217,741.7710287342884 Z "/><path class="wedge" fill="rgb(229,178,178)" d=" M 885,750.130876883962 L 885,819.9 A 364.4,364.4 0 0,1 831.5789613969902,815.9629698520719 L 841.8071145783294,746.9476424031643 A 294.63087688396195,294.63087688396195 0 0 0 885,750.130876883962 Z "/><path class="wedge" fill="rgb(229,178,178)" d=" M 845.3155693354104,755.651056827741 L 837.236566299072,816.7561617482767 A 364.4,364.4 0 0,1 831.5789613969902,815.9629698520719 L 840.6149267712651,754.9920303221143 A 302.763126803748,302.763126803748 0 0 0 845.3155693354104,755.651056827741 Z "/><path class="wedge" fill="rgb(229,178,178)" d=" M 885,758.263126803748 L 885,819.9 A 364.4,364.4 0 0,1 855.1501238080468,818.6753638276211 L 860.1991167656956,757.2456331793069 A 302.763126803748,302.763126803748 0 0 0 885,758.263126803748 Z "/><path class="wedge" fill="rgb(229,179,178)" d=" M 860.1991167656956,757.2456331793069 L 855.1501238080468,818.6753638276211 A 364.4,364.4 0 0,1 837.236566299072,816.7561617482767 L 845.3155693354104,755.651056827741 A 302.763126803748,302.763126803748 0 0 0 860.1991167656956,757.2456331793069 Z "/><path class="wedge" fill="url(#hiddenPattern)" d=" M 860.1991167656956,757.2456331793069 L 855.1501238080468,818.6753638276211 A 364.4,364.4 0 0,1 837.236566299072,816.7561617482767 L 845.3155693354104,755.651056827741 A 302.763126803748,302.763126803748 0 0 0 860.1991167656956,757.2456331793069 Z "/><path class="wedge" fill="rgb(229,179,178)" d=" M 841.8071145783294,746.9476424031643 L 831.5789613969902,815.9629698520719 A 364.4,364.4 0 0,1 798.8112256211479,809.5605247285714 L 815.3131883293217,741.7710287342884 A 294.63087688396195,294.63087688396195 0 0 0 841.8071145783294,746.9476424031643 Z "/><path class="wedge" fill="rgb(229,180,178)" d=" M 803.6485980508298,728.6752859727476 L 780.9957702327405,804.7427238905902 A 364.4,364.4 0 0,1 719.859601606839,780.3322779813423 L 755.8283022931699,709.5816010200724 A 285.0312043713599,285.0312043713599 0 0 0 803.6485980508298,728.6752859727476 Z "/><path class="wedge" fill="rgb(229,180,178)" d=" M 759.1344734952391,721.8929857392865 L 729.3292897763781,784.9753252953446 A 364.4,364.4 0 0,1 719.859601606839,780.3322779813423 L 751.4778803854449,718.1389102685449 A 294.63087688396195,294.63087688396195 0 0 0 759.1344734952391,721.8929857392865 Z "/><path class="wedge" fill="rgb(229,180,178)" d=" M 800.9087337651791,737.8756585763667 L 780.9957702327405,804.7427238905902 A 364.4,364.4 0 0,1 754.3765304825654,795.6835816309009 L 779.3860939474555,730.5510070182195 A 294.63087688396195,294.63087688396195 0 0 0 800.9087337651791,737.8756585763667 Z "/><path class="wedge" fill="rgb(229,180,178)" d=" M 779.3860939474555,730.5510070182195 L 754.3765304825654,795.6835816309009 A 364.4,364.4 0 0,1 729.3292897763781,784.9753252953446 L 759.1344734952391,721.8929857392865 A 294.63087688396195,294.63087688396195 0 0 0 779.3860939474555,730.5510070182195 Z "/><path class="wedge" fill="url(#hiddenPattern)" d=" M 779.3860939474555,730.5510070182195 L 754.3765304825654,795.6835816309009 A 364.4,364.4 0 0,1 729.3292897763781,784.9753252953446 L 759.1344734952391,721.8929857392865 A 294.63087688396195,294.63087688396195 0 0 0 779.3860939474555,730.5510070182195 Z "/><path class="wedge" fill="rgb(226,172,168)" d=" M 743.455111148699,689.5580098716393 L 696.4314764883496,767.31608672523 A 364.4,364.4 0 0,1 650.0582561559597,734.0493439222598 L 708.6460550274132,664.5870479910352 A 273.5289884911645,273.5289884911645 0 0 0 743.455111148699,689.5580098716393 Z "/><path class="wedge" fill="rgb(226,172,168)" d=" M 705.7353815237691,677.1009567397201 L 655.8179807301747,738.8071867133013 A 364.4,364.4 0 0,1 650.0582561559597,734.0493439222598 L 701.230164091728,673.3794044319809 A 285.0312043713599,285.0312043713599 0 0 0 705.7353815237691,677.1009567397201 Z "/><path class="wedge" fill="rgb(229,181,178)" d=" M 737.5029819894215,699.4004246477956 L 696.4314764883496,767.31608672523 A 364.4,364.4 0 0,1 677.983296150108,755.3857187782141 L 723.0729406604725,690.0685718911232 A 285.0312043713599,285.0312043713599 0 0 0 737.5029819894215,699.4004246477956 Z "/><path class="wedge" fill="rgb(229,182,178)" d=" M 723.0729406604725,690.0685718911232 L 677.983296150108,755.3857187782141 A 364.4,364.4 0 0,1 655.8179807301747,738.8071867133013 L 705.7353815237691,677.1009567397201 A 285.0312043713599,285.0312043713599 0 0 0 723.0729406604725,690.0685718911232 Z "/><path class="wedge" fill="url(#hiddenPattern)" d=" M 723.0729406604725,690.0685718911232 L 677.983296150108,755.3857187782141 A 364.4,364.4 0 0,1 655.8179807301747,738.8071867133013 L 705.7353815237691,677.1009567397201 A 285.0312043713599,285.0312043713599 0 0 0 723.0729406604725,690.0685718911232 Z "/><path class="wedge" fill="rgb(223,169,159)" d=" M 626.2615472176251,475.3530385367053 L 521.6679916550498,483.37851703418005 A 364.4,364.4 0 0,1 520.772297428774,444.29550627263677 L 625.6236993733671,447.52097997246796 A 259.49899823960243,259.49899823960243 0 0 0 626.2615472176251,475.3530385367053 Z "/><path class="wedge" fill="rgb(223,169,159)" d=" M 611.4929410956428,452.0364361579343 L 520.6292149708763,450.8857809696485 A 364.4,364.4 0 0,1 520.772297428774,444.29550627263677 L 611.6003428518986,447.089588815035 A 273.5289884911645,273.5289884911645 0 0 0 611.4929410956428,452.0364361579343 Z "/><path class="wedge" fill="rgb(226,178,168)" d=" M 612.2726763747048,476.4264065998709 L 521.6679916550498,483.37851703418005 A 364.4,364.4 0 0,1 520.6149056949406,458.79591387826775 L 611.4822001467604,457.9740065567414 A 273.5289884911645,273.5289884911645 0 0 0 612.2726763747048,476.4264065998709 Z "/><path class="wedge" fill="rgb(226,178,168)" d=" M 611.4822001467604,457.9740065567414 L 520.6149056949406,458.79591387826775 A 364.4,364.4 0 0,1 520.6292149708763,450.8857809696485 L 611.4929410956428,452.0364361579343 A 273.5289884911645,273.5289884911645 0 0 0 611.4822001467604,457.9740065567414 Z "/><path class="wedge" fill="url(#hiddenPattern)" d=" M 611.4822001467604,457.9740065567414 L 520.6149056949406,458.79591387826775 A 364.4,364.4 0 0,1 520.6292149708763,450.8857809696485 L 611.4929410956428,452.0364361579343 A 273.5289884911645,273.5289884911645 0 0 0 611.4822001467604,457.9740065567414 Z "/><path class="wedge" fill="rgb(219,162,149)" d=" M 625.6236993733671,447.52097997246796 L 520.772297428774,444.29550627263677 A 364.4,364.4 0 0,1 521.9162829752918,424.555300429289 L 626.4383621157435,433.4634507699644 A 259.49899823960243,259.49899823960243 0 0 0 625.6236993733671,447.52097997246796 Z "/><path class="wedge" fill="url(#hiddenPattern)" d=" M 625.6236993733671,447.52097997246796 L 520.772297428774,444.29550627263677 A 364.4,364.4 0 0,1 521.9162829752918,424.555300429289 L 626.4383621157435,433.4634507699644 A 259.49899823960243,259.49899823960243 0 0 0 625.6236993733671,447.52097997246796 Z "/><path class="wedge" fill="rgb(219,163,149)" d=" M 626.4383621157435,433.4634507699644 L 521.9162829752918,424.555300429289 A 364.4,364.4 0 0,1 525.6713348535934,394.91724334349294 L 629.1124351145278,412.35739664391554 A 259.49899823960243,259.49899823960243 0 0 0 626.4383621157435,433.4634507699644 Z "/><path class="wedge" fill="url(#hiddenPattern)" d=" M 626.4383621157435,433.4634507699644 L 521.9162829752918,424.555300429289 A 364.4,364.4 0 0,1 525.6713348535934,394.91724334349294 L 629.1124351145278,412.35739664391554 A 259.49899823960243,259.49899823960243 0 0 0 626.4383621157435,433.4634507699644 Z "/><path class="wedge" fill="rgb(216,159,140)" d=" M 697.4905725261979,302.49990305371557 L 602.6626999735543,225.12420045982094 A 364.4,364.4 0 0,1 613.8062999606732,212.10456647878618 L 704.8914014403583,293.85313865711043 A 242.0099482606562,242.0099482606562 0 0 0 697.4905725261979,302.49990305371557 Z "/><path class="wedge" fill="url(#hiddenPattern)" d=" M 697.4905725261979,302.49990305371557 L 602.6626999735543,225.12420045982094 A 364.4,364.4 0 0,1 613.8062999606732,212.10456647878618 L 704.8914014403583,293.85313865711043 A 242.0099482606562,242.0099482606562 0 0 0 697.4905725261979,302.49990305371557 Z "/><path class="wedge" fill="rgb(216,162,140)" d=" M 757.4194163592751,276.7463049794752 L 673.307377535821,158.8965718434148 A 364.4,364.4 0 0,1 733.3139388971106,124.17131294273582 L 793.583511411958,255.81846750430034 A 219.61258799440154,219.61258799440154 0 0 0 757.4194163592751,276.7463049794752 Z "/><path class="wedge" fill="rgb(216,162,140)" d=" M 783.99503060841,235.57544199128316 L 732.9144716536473,124.35448505587345 A 364.4,364.4 0 0,1 733.3139388971106,124.17131294273582 L 784.2603298590203,235.45379140505037 A 242.0099482606562,242.0099482606562 0 0 0 783.99503060841,235.57544199128316 Z "/><path class="wedge" fill="rgb(219,169,149)" d=" M 744.4080114991258,258.51597063087695 L 673.307377535821,158.8965718434148 A 364.4,364.4 0 0,1 704.006510092746,139.2268322933595 L 764.7963086499173,245.45265380648215 A 242.0099482606562,242.0099482606562 0 0 0 744.4080114991258,258.51597063087695 Z "/><path class="wedge" fill="rgb(223,177,159)" d=" M 734.248014642786,244.28075608928168 L 673.307377535821,158.8965718434148 A 364.4,364.4 0 0,1 703.625220897756,139.44533778852087 L 755.8381627800179,230.42901143568943 A 259.49899823960243,259.49899823960243 0 0 0 734.248014642786,244.28075608928168 Z "/><path class="wedge" fill="rgb(223,177,159)" d=" M 747.4268859643356,219.08564798318673 L 701.7227428758783,140.54475393945484 A 364.4,364.4 0 0,1 703.625220897756,139.44533778852087 L 748.8549399954852,218.2603949982915 A 273.5289884911645,273.5289884911645 0 0 0 747.4268859643356,219.08564798318673 Z "/><path class="wedge" fill="rgb(226,185,168)" d=" M 726.0975057802721,232.8610436699162 L 673.307377535821,158.8965718434148 A 364.4,364.4 0 0,1 697.5608453611165,143.0037227289568 L 744.3028474972207,220.93141978813685 A 273.5289884911645,273.5289884911645 0 0 0 726.0975057802721,232.8610436699162 Z "/><path class="wedge" fill="rgb(226,185,168)" d=" M 726.0975057802721,232.8610436699162 L 673.307377535821,158.8965718434148 A 364.4,364.4 0 0,1 697.5608453611165,143.0037227289568 L 744.3028474972207,220.93141978813685 A 273.5289884911645,273.5289884911645 0 0 0 726.0975057802721,232.8610436699162 Z "/><path class="wedge" fill="url(#hiddenPattern)" d=" M 726.0975057802721,232.8610436699162 L 673.307377535821,158.8965718434148 A 364.4,364.4 0 0,1 697.5608453611165,143.0037227289568 L 744.3028474972207,220.93141978813685 A 273.5289884911645,273.5289884911645 0 0 0 726.0975057802721,232.8610436699162 Z "/><path class="wedge" fill="rgb(223,178,159)" d=" M 744.3028474972207,220.93141978813685 L 697.5608453611165,143.0037227289568 A 364.4,364.4 0 0,1 701.7227428758783,140.54475393945484 L 747.4268859643356,219.08564798318673 A 273.5289884911645,273.5289884911645 0 0 0 744.3028474972207,220.93141978813685 Z "/><path class="wedge" fill="url(#hiddenPattern)" d=" M 744.3028474972207,220.93141978813685 L 697.5608453611165,143.0037227289568 A 364.4,364.4 0 0,1 701.7227428758783,140.54475393945484 L 747.4268859643356,219.08564798318673 A 273.5289884911645,273.5289884911645 0 0 0 744.3028474972207,220.93141978813685 Z "/><path class="wedge" fill="rgb(219,170,149)" d=" M 755.8381627800179,230.42901143568943 L 703.625220897756,139.44533778852087 A 364.4,364.4 0 0,1 704.006510092746,139.2268322933595 L 756.1096890262843,230.27340782124315 A 259.49899823960243,259.49899823960243 0 0 0 755.8381627800179,230.42901143568943 Z "/><path class="wedge" fill="url(#hiddenPattern)" d=" M 755.8381627800179,230.42901143568943 L 703.625220897756,139.44533778852087 A 364.4,364.4 0 0,1 704.006510092746,139.2268322933595 L 756.1096890262843,230.27340782124315 A 259.49899823960243,259.49899823960243 0 0 0 755.8381627800179,230.42901143568943 Z "/><path class="wedge" fill="rgb(219,170,149)" d=" M 764.7963086499173,245.45265380648215 L 704.006510092746,139.2268322933595 A 364.4,364.4 0 0,1 731.7173994058801,124.90689003685588 L 783.2000158094353,235.94231219124606 A 242.0099482606562,242.0099482606562 0 0 0 764.7963086499173,245.45265380648215 Z "/><path class="wedge" fill="rgb(219,170,149)" d=" M 775.2758370036528,220.3397607117474 L 730.9204649454905,125.27756454567447 A 364.4,364.4 0 0,1 731.7173994058801,124.90689003685588 L 775.8433553739429,220.07579346775347 A 259.49899823960243,259.49899823960243 0 0 0 775.2758370036528,220.3397607117474 Z "/><path class="wedge" fill="rgb(223,178,159)" d=" M 756.1096890262843,230.27340782124315 L 704.006510092746,139.2268322933595 A 364.4,364.4 0 0,1 730.9204649454905,125.27756454567447 L 775.2758370036528,220.3397607117474 A 259.49899823960243,259.49899823960243 0 0 0 756.1096890262843,230.27340782124315 Z "/><path class="wedge" fill="rgb(223,178,159)" d=" M 756.1096890262843,230.27340782124315 L 704.006510092746,139.2268322933595 A 364.4,364.4 0 0,1 730.9204649454905,125.27756454567447 L 775.2758370036528,220.3397607117474 A 259.49899823960243,259.49899823960243 0 0 0 756.1096890262843,230.27340782124315 Z "/><path class="wedge" fill="rgb(216,163,140)" d=" M 783.2000158094353,235.94231219124606 L 731.7173994058801,124.90689003685588 A 364.4,364.4 0 0,1 732.9144716536473,124.35448505587345 L 783.99503060841,235.57544199128316 A 242.0099482606562,242.0099482606562 0 0 0 783.2000158094353,235.94231219124606 Z "/><path class="wedge" fill="url(#hiddenPattern)" d=" M 783.2000158094353,235.94231219124606 L 731.7173994058801,124.90689003685588 A 364.4,364.4 0 0,1 732.9144716536473,124.35448505587345 L 783.99503060841,235.57544199128316 A 242.0099482606562,242.0099482606562 0 0 0 783.2000158094353,235.94231219124606 Z "/><path class="wedge" fill="rgb(213,156,130)" d=" M 793.583511411958,255.81846750430034 L 733.3139388971106,124.17131294273582 A 364.4,364.4 0 0,1 741.7528149427078,120.43641801418966 L 798.6693605012489,253.5675620675682 A 219.61258799440154,219.61258799440154 0 0 0 793.583511411958,255.81846750430034 Z "/><path class="wedge" fill="url(#hiddenPattern)" d=" M 793.583511411958,255.81846750430034 L 733.3139388971106,124.17131294273582 A 364.4,364.4 0 0,1 741.7528149427078,120.43641801418966 L 798.6693605012489,253.5675620675682 A 219.61258799440154,219.61258799440154 0 0 0 793.583511411958,255.81846750430034 Z "/><path class="wedge" fill="rgb(213,156,130)" d=" M 810.339532034666,280.86477893651875 L 741.7528149427078,120.43641801418966 A 364.4,364.4 0 0,1 855.1501238080469,92.32463617237875 L 869.4422372118017,266.212911349665 A 189.92536932356782,189.92536932356782 0 0 0 810.339532034666,280.86477893651875 Z "/><path class="wedge" fill="rgb(216,164,140)" d=" M 798.6693605012489,253.5675620675682 L 741.7528149427078,120.43641801418966 A 364.4,364.4 0 0,1 834.1886161947875,94.65992008120912 L 854.3775535207477,238.03286552395073 A 219.61258799440154,219.61258799440154 0 0 0 798.6693605012489,253.5675620675682 Z "/><path class="wedge" fill="rgb(216,164,140)" d=" M 798.6693605012489,253.5675620675682 L 741.7528149427078,120.43641801418966 A 364.4,364.4 0 0,1 834.1886161947875,94.65992008120912 L 854.3775535207477,238.03286552395073 A 219.61258799440154,219.61258799440154 0 0 0 798.6693605012489,253.5675620675682 Z "/><path class="wedge" fill="rgb(216,164,140)" d=" M 844.9089181815457,216.8338729191939 L 824.6339269536558,96.13486921382673 A 364.4,364.4 0 0,1 834.1886161947875,94.65992008120912 L 851.2544995451377,215.85431100022603 A 242.0099482606562,242.0099482606562 0 0 0 844.9089181815457,216.8338729191939 Z "/><path class="wedge" fill="rgb(219,171,149)" d=" M 789.8648632156971,232.97332563003266 L 741.7528149427078,120.43641801418966 A 364.4,364.4 0 0,1 824.6339269536558,96.13486921382673 L 844.9089181815457,216.8338729191939 A 242.0099482606562,242.0099482606562 0 0 0 789.8648632156971,232.97332563003266 Z "/><path class="wedge" fill="rgb(219,171,149)" d=" M 841.7031061292304,199.63849631392281 L 824.2005817612414,96.20793114538628 A 364.4,364.4 0 0,1 824.6339269536558,96.13486921382673 L 842.0117028452662,199.58646695593941 A 259.49899823960243,259.49899823960243 0 0 0 841.7031061292304,199.63849631392281 Z "/><path class="wedge" fill="rgb(223,179,159)" d=" M 782.9898435153395,216.89225062598604 L 741.7528149427078,120.43641801418966 A 364.4,364.4 0 0,1 823.7673249955767,96.28151563177784 L 841.3945723842509,199.69089779719556 A 259.49899823960243,259.49899823960243 0 0 0 782.9898435153395,216.89225062598604 Z "/><path class="wedge" fill="rgb(223,179,159)" d=" M 834.8154776525882,186.61411107727923 L 818.1433204053707,97.28561671314611 A 364.4,364.4 0 0,1 823.7673249955767,96.28151563177784 L 839.0370152124915,185.86040429042538 A 273.5289884911645,273.5289884911645 0 0 0 834.8154776525882,186.61411107727923 Z "/><path class="wedge" fill="rgb(226,186,168)" d=" M 777.4745948602421,203.99175998681372 L 741.7528149427078,120.43641801418966 A 364.4,364.4 0 0,1 817.7113677175796,97.36650538442905 L 834.4912416982318,186.67482841107835 A 273.5289884911645,273.5289884911645 0 0 0 777.4745948602421,203.99175998681372 Z "/><path class="wedge" fill="rgb(226,186,168)" d=" M 827.9821176980323,176.2299719569125 L 812.105116940927,98.46541340676242 A 364.4,364.4 0 0,1 817.7113677175796,97.36650538442905 L 832.3672889682771,175.3704135675079 A 285.0312043713599,285.0312043713599 0 0 0 827.9821176980323,176.2299719569125 Z "/><path class="wedge" fill="rgb(229,194,178)" d=" M 772.9530250283011,193.4155424961652 L 741.7528149427078,120.43641801418966 A 364.4,364.4 0 0,1 812.105116940927,98.46541340676242 L 827.9821176980323,176.2299719569125 A 285.0312043713599,285.0312043713599 0 0 0 772.9530250283011,193.4155424961652 Z "/><path class="wedge" fill="rgb(229,194,178)" d=" M 778.0604976463165,180.9616667025188 L 752.7370305861399,115.95049415169473 A 364.4,364.4 0 0,1 812.105116940927,98.46541340676242 L 826.0617911195155,166.82433225612397 A 294.63087688396195,294.63087688396195 0 0 0 778.0604976463165,180.9616667025188 Z "/><path class="wedge" fill="rgb(229,194,178)" d=" M 769.1793530609517,184.58870205169984 L 741.7528149427078,120.43641801418966 A 364.4,364.4 0 0,1 752.7370305861399,115.95049415169473 L 778.0604976463165,180.9616667025188 A 294.63087688396195,294.63087688396195 0 0 0 769.1793530609517,184.58870205169984 Z "/><path class="wedge" fill="url(#hiddenPattern)" d=" M 769.1793530609517,184.58870205169984 L 741.7528149427078,120.43641801418966 A 364.4,364.4 0 0,1 752.7370305861399,115.95049415169473 L 778.0604976463165,180.9616667025188 A 294.63087688396195,294.63087688396195 0 0 0 769.1793530609517,184.58870205169984 Z "/><path class="wedge" fill="rgb(223,180,159)" d=" M 834.4912416982318,186.67482841107835 L 817.7113677175796,97.36650538442905 A 364.4,364.4 0 0,1 818.1433204053707,97.28561671314611 L 834.8154776525882,186.61411107727923 A 273.5289884911645,273.5289884911645 0 0 0 834.4912416982318,186.67482841107835 Z "/><path class="wedge" fill="url(#hiddenPattern)" d=" M 834.4912416982318,186.67482841107835 L 817.7113677175796,97.36650538442905 A 364.4,364.4 0 0,1 818.1433204053707,97.28561671314611 L 834.8154776525882,186.61411107727923 A 273.5289884911645,273.5289884911645 0 0 0 834.4912416982318,186.67482841107835 Z "/><path class="wedge" fill="rgb(219,173,149)" d=" M 841.3945723842509,199.69089779719556 L 823.7673249955767,96.28151563177784 A 364.4,364.4 0 0,1 824.2005817612414,96.20793114538628 L 841.7031061292304,199.63849631392281 A 259.49899823960243,259.49899823960243 0 0 0 841.3945723842509,199.69089779719556 Z "/><path class="wedge" fill="url(#hiddenPattern)" d=" M 841.3945723842509,199.69089779719556 L 823.7673249955767,96.28151563177784 A 364.4,364.4 0 0,1 824.2005817612414,96.20793114538628 L 841.7031061292304,199.63849631392281 A 259.49899823960243,259.49899823960243 0 0 0 841.3945723842509,199.69089779719556 Z "/><path class="wedge" fill="rgb(213,159,130)" d=" M 854.3775535207477,238.03286552395073 L 834.1886161947875,94.65992008120912 A 364.4,364.4 0 0,1 855.1501238080469,92.32463617237875 L 867.0104046053038,236.625462277738 A 219.61258799440154,219.61258799440154 0 0 0 854.3775535207477,238.03286552395073 Z "/><path class="wedge" fill="url(#hiddenPattern)" d=" M 854.3775535207477,238.03286552395073 L 834.1886161947875,94.65992008120912 A 364.4,364.4 0 0,1 855.1501238080469,92.32463617237875 L 867.0104046053038,236.625462277738 A 219.61258799440154,219.61258799440154 0 0 0 854.3775535207477,238.03286552395073 Z "/><path class="wedge" fill="rgb(210,152,121)" d=" M 869.4422372118017,266.212911349665 L 855.1501238080469,92.32463617237875 A 364.4,364.4 0 0,1 865.233952795044,91.63647698911694 L 874.6979313516237,265.85424261466386 A 189.92536932356782,189.92536932356782 0 0 0 869.4422372118017,266.212911349665 Z "/><path class="wedge" fill="url(#hiddenPattern)" d=" M 869.4422372118017,266.212911349665 L 855.1501238080469,92.32463617237875 A 364.4,364.4 0 0,1 865.233952795044,91.63647698911694 L 874.6979313516237,265.85424261466386 A 189.92536932356782,189.92536932356782 0 0 0 869.4422372118017,266.212911349665 Z "/><path class="wedge" fill="rgb(210,159,121)" d=" M 969.9494623777865,333.38899734914185 L 1093.100320232808,156.36521981052965 A 364.4,364.4 0 0,1 1155.8999714948473,211.7776878410782 L 995.5851586912497,356.00914210891557 A 148.75317854309148,148.75317854309148 0 0 0 969.9494623777865,333.38899734914185 Z "/><path class="wedge" fill="rgb(210,159,121)" d=" M 1024.1843379556742,326.2739732850449 L 1152.0458029471579,207.5606946684176 A 364.4,364.4 0 0,1 1155.8999714948473,211.7776878410782 L 1026.193131547483,328.47187116032626 A 189.92536932356782,189.92536932356782 0 0 0 1024.1843379556742,326.2739732850449 Z "/><path class="wedge" fill="rgb(213,166,130)" d=" M 993.4619379159407,299.5908792398204 L 1093.100320232808,156.36521981052965 A 364.4,364.4 0 0,1 1137.8875262748336,193.13525569429999 L 1016.8050406835105,318.75543095569833 A 189.92536932356782,189.92536932356782 0 0 0 993.4619379159407,299.5908792398204 Z "/><path class="wedge" fill="rgb(213,166,130)" d=" M 993.4619379159407,299.5908792398204 L 1093.100320232808,156.36521981052965 A 364.4,364.4 0 0,1 1137.8875262748336,193.13525569429999 L 1016.8050406835105,318.75543095569833 A 189.92536932356782,189.92536932356782 0 0 0 993.4619379159407,299.5908792398204 Z "/><path class="wedge" fill="rgb(213,166,130)" d=" M 1033.9394287657778,294.1099898862308 L 1132.133046142296,187.70788378962726 A 364.4,364.4 0 0,1 1137.8875262748336,193.13525569429999 L 1037.4074756221692,297.3808987500982 A 219.61258799440154,219.61258799440154 0 0 0 1033.9394287657778,294.1099898862308 Z "/><path class="wedge" fill="rgb(216,173,140)" d=" M 1010.4156144039262,275.22073755064207 L 1093.100320232808,156.36521981052965 A 364.4,364.4 0 0,1 1131.8099130523092,187.41003968982437 L 1033.744686465672,293.930488476855 A 219.61258799440154,219.61258799440154 0 0 0 1010.4156144039262,275.22073755064207 Z "/><path class="wedge" fill="rgb(216,173,140)" d=" M 1038.7901995259372,268.6380467112208 L 1116.5654753452222,174.13761689212748 A 364.4,364.4 0 0,1 1131.8099130523092,187.41003968982437 L 1048.9145287815763,277.45269642187986 A 242.0099482606562,242.0099482606562 0 0 0 1038.7901995259372,268.6380467112208 Z "/><path class="wedge" fill="rgb(219,180,149)" d=" M 1023.2062231958503,256.83481702355516 L 1093.100320232808,156.36521981052965 A 364.4,364.4 0 0,1 1105.5375476878057,165.4128578170883 L 1031.4661923859985,262.84364909229396 A 242.0099482606562,242.0099482606562 0 0 0 1023.2062231958503,256.83481702355516 Z "/><path class="wedge" fill="rgb(219,180,149)" d=" M 1023.2062231958503,256.83481702355516 L 1093.100320232808,156.36521981052965 A 364.4,364.4 0 0,1 1105.5375476878057,165.4128578170883 L 1031.4661923859985,262.84364909229396 A 242.0099482606562,242.0099482606562 0 0 0 1023.2062231958503,256.83481702355516 Z "/><path class="wedge" fill="rgb(219,180,149)" d=" M 1023.2062231958503,256.83481702355516 L 1093.100320232808,156.36521981052965 A 364.4,364.4 0 0,1 1105.5375476878057,165.4128578170883 L 1031.4661923859985,262.84364909229396 A 242.0099482606562,242.0099482606562 0 0 0 1023.2062231958503,256.83481702355516 Z "/><path class="wedge" fill="rgb(216,173,140)" d=" M 1031.4661923859985,262.84364909229396 L 1105.5375476878057,165.4128578170883 A 364.4,364.4 0 0,1 1116.5654753452222,174.13761689212748 L 1038.7901995259372,268.6380467112208 A 242.0099482606562,242.0099482606562 0 0 0 1031.4661923859985,262.84364909229396 Z "/><path class="wedge" fill="url(#hiddenPattern)" d=" M 1031.4661923859985,262.84364909229396 L 1105.5375476878057,165.4128578170883 A 364.4,364.4 0 0,1 1116.5654753452222,174.13761689212748 L 1038.7901995259372,268.6380467112208 A 242.0099482606562,242.0099482606562 0 0 0 1031.4661923859985,262.84364909229396 Z "/><path class="wedge" fill="rgb(213,167,130)" d=" M 1033.744686465672,293.930488476855 L 1131.8099130523092,187.41003968982437 A 364.4,364.4 0 0,1 1132.133046142296,187.70788378962726 L 1033.9394287657778,294.1099898862308 A 219.61258799440154,219.61258799440154 0 0 0 1033.744686465672,293.930488476855 Z "/><path class="wedge" fill="url(#hiddenPattern)" d=" M 1033.744686465672,293.930488476855 L 1131.8099130523092,187.41003968982437 A 364.4,364.4 0 0,1 1132.133046142296,187.70788378962726 L 1033.9394287657778,294.1099898862308 A 219.61258799440154,219.61258799440154 0 0 0 1033.744686465672,293.930488476855 Z "/><path class="wedge" fill="rgb(210,161,121)" d=" M 1016.8050406835105,318.75543095569833 L 1137.8875262748336,193.13525569429999 A 364.4,364.4 0 0,1 1152.0458029471579,207.5606946684176 L 1024.1843379556742,326.2739732850449 A 189.92536932356782,189.92536932356782 0 0 0 1016.8050406835105,318.75543095569833 Z "/><path class="wedge" fill="url(#hiddenPattern)" d=" M 1016.8050406835105,318.75543095569833 L 1137.8875262748336,193.13525569429999 A 364.4,364.4 0 0,1 1152.0458029471579,207.5606946684176 L 1024.1843379556742,326.2739732850449 A 189.92536932356782,189.92536932356782 0 0 0 1016.8050406835105,318.75543095569833 Z "/><path class="wedge" fill="rgb(207,155,111)" d=" M 995.5851586912497,356.00914210891557 L 1155.8999714948473,211.7776878410782 A 364.4,364.4 0 0,1 1162.2702346380993,219.0500539570091 L 998.1855892365699,358.97782370955713 A 148.75317854309148,148.75317854309148 0 0 0 995.5851586912497,356.00914210891557 Z "/><path class="wedge" fill="url(#hiddenPattern)" d=" M 995.5851586912497,356.00914210891557 L 1155.8999714948473,211.7776878410782 A 364.4,364.4 0 0,1 1162.2702346380993,219.0500539570091 L 998.1855892365699,358.97782370955713 A 148.75317854309148,148.75317854309148 0 0 0 995.5851586912497,356.00914210891557 Z "/><path class="wedge" fill="rgb(111,207,111)" d=" M 967.1328716250065,423.90583283847786 L 1225.1047547744588,324.6714259811515 A 364.4,364.4 0 0,1 1241.2686045938965,378.94909288115633 L 971.0363260270661,437.013502122782 A 88,88 0 0 0 967.1328716250065,423.90583283847786 Z "/><path class="wedge" fill="rgb(111,207,111)" d=" M 967.1328716250065,423.90583283847786 L 1225.1047547744588,324.6714259811515 A 364.4,364.4 0 0,1 1241.2686045938965,378.94909288115633 L 971.0363260270661,437.013502122782 A 88,88 0 0 0 967.1328716250065,423.90583283847786 Z "/><path class="wedge" fill="rgb(121,210,121)" d=" M 1023.8355195124022,402.0939455829752 L 1225.1047547744588,324.6714259811515 A 364.4,364.4 0 0,1 1241.0829298652586,378.09000672669396 L 1030.3580341448792,423.90015765531393 A 148.75317854309148,148.75317854309148 0 0 0 1023.8355195124022,402.0939455829752 Z "/><path class="wedge" fill="rgb(130,213,130)" d=" M 1062.2626815566425,387.31211515201556 L 1225.1047547744588,324.6714259811515 A 364.4,364.4 0 0,1 1234.5547051321287,352.5491956321338 L 1067.1879979994796,401.84201552764716 A 189.92536932356782,189.92536932356782 0 0 0 1062.2626815566425,387.31211515201556 Z "/><path class="wedge" fill="rgb(140,216,140)" d=" M 1089.9705965565865,376.65367254693626 L 1225.1047547744588,324.6714259811515 A 364.4,364.4 0 0,1 1234.3053741994272,351.70637998702387 L 1095.515524775766,392.9468015687234 A 219.61258799440154,219.61258799440154 0 0 0 1089.9705965565865,376.65367254693626 Z "/><path class="wedge" fill="rgb(140,216,159)" d=" M 1095.515524775766,392.9468015687234 L 1234.3053741994272,351.70637998702387 A 364.4,364.4 0 0,1 1234.5547051321287,352.5491956321338 L 1095.6657888026527,393.4547404409099 A 219.61258799440154,219.61258799440154 0 0 0 1095.515524775766,392.9468015687234 Z "/><path class="wedge" fill="url(#hiddenPattern)" d=" M 1095.515524775766,392.9468015687234 L 1234.3053741994272,351.70637998702387 A 364.4,364.4 0 0,1 1234.5547051321287,352.5491956321338 L 1095.6657888026527,393.4547404409099 A 219.61258799440154,219.61258799440154 0 0 0 1095.515524775766,392.9468015687234 Z "/><path class="wedge" fill="rgb(130,213,151)" d=" M 1067.1879979994796,401.84201552764716 L 1234.5547051321287,352.5491956321338 A 364.4,364.4 0 0,1 1241.0829298652586,378.09000672669396 L 1070.5905103306184,415.15389253082446 A 189.92536932356782,189.92536932356782 0 0 0 1067.1879979994796,401.84201552764716 Z "/><path class="wedge" fill="rgb(130,213,151)" d=" M 1067.1879979994796,401.84201552764716 L 1234.5547051321287,352.5491956321338 A 364.4,364.4 0 0,1 1241.0829298652586,378.09000672669396 L 1070.5905103306184,415.15389253082446 A 189.92536932356782,189.92536932356782 0 0 0 1067.1879979994796,401.84201552764716 Z "/><path class="wedge" fill="rgb(111,207,158)" d=" M 1030.3580341448792,423.90015765531393 L 1241.0829298652586,378.09000672669396 A 364.4,364.4 0 0,1 1241.2686045938965,378.94909288115633 L 1030.4338291669976,424.25084864356484 A 148.75317854309148,148.75317854309148 0 0 0 1030.3580341448792,423.90015765531393 Z "/><path class="wedge" fill="url(#hiddenPattern)" d=" M 1030.3580341448792,423.90015765531393 L 1241.0829298652586,378.09000672669396 A 364.4,364.4 0 0,1 1241.2686045938965,378.94909288115633 L 1030.4338291669976,424.25084864356484 A 148.75317854309148,148.75317854309148 0 0 0 1030.3580341448792,423.90015765531393 Z "/><path class="wedge" fill="rgb(101,101,204)" d=" M 971.0363260270661,437.013502122782 L 1241.2686045938965,378.94909288115633 A 364.4,364.4 0 0,1 1243.7274553959512,391.4533549266953 L 971.6301209518214,440.0331921886641 A 88,88 0 0 0 971.0363260270661,437.013502122782 Z "/><path class="wedge" fill="url(#hiddenPattern)" d=" M 971.0363260270661,437.013502122782 L 1241.2686045938965,378.94909288115633 A 364.4,364.4 0 0,1 1243.7274553959512,391.4533549266953 L 971.6301209518214,440.0331921886641 A 88,88 0 0 0 971.0363260270661,437.013502122782 Z "/><rect fill="rgb(101,101,204)" x="1884.335" y="875.335" width="22" height="22"/><rect fill="url(#hiddenPattern)" style="stroke:none" x="1884.335" y="875.335" width="22" height="22"/><path class="line" d="M 1242.5526962457104,385.1904742767904 L 1309.5938267917813,372.0074382036886 A 432.725,432.725 0 0,1 1317.725,455.50000911899747 L 1317.725,886.335 L 1800.7804752604168,886.335"/><text x="1877.0016666666668" y="886.335" style="font-color:black;font-weight:normal" text-anchor="end">Viruses&#160;&#160;&#160;0.6%</text><circle cx="885" cy="455.5" r="88"/><circle cx="885" cy="455.5" r="364.4"/><text x="885" y="455.5" text-anchor="middle" style="font-color:black;font-weight:bold" transform="rotate(360,885,455.5)">Root</text><text x="1111.2" y="455.5" text-anchor="start" style="font-color:black;font-weight:normal" transform="rotate(399.9385796545106,885,455.5)">28%&#160;&#160;&#160;[other Root]</text><path class="line" d=" M 967.1328716250065,423.90583283847786 A 88,88 0 1 0 885,543.5"/><line x1="1225.1047547744588" y1="324.6714259811515" x2="967.1328716250065" y2="423.90583283847786"/><text x="885" y="337.12341072845425" text-anchor="middle" style="font-color:black;font-weight:normal" transform="rotate(304.4798464491363,885,455.5)">cellular organisms</text><path class="line" d=" M 969.9494623777865,333.38899734914185 A 148.75317854309148,148.75317854309148 0 1 0 885,604.2531785430915"/><line x1="1093.100320232808" y1="156.36521981052965" x2="969.9494623777865" y2="333.38899734914185"/><text x="885" y="294.39516422276563" text-anchor="middle" style="font-color:black;font-weight:normal" transform="rotate(287.4126679462572,885,455.5)">Bacteria</text><path class="line" d=" M 810.339532034666,280.86477893651875 A 189.92536932356782,189.92536932356782 0 0 0 885,645.4253693235678"/><line x1="741.7528149427078" y1="120.43641801418966" x2="810.339532034666" y2="280.86477893651875"/><text x="885" y="654.331534924818" text-anchor="middle" style="font-color:black;font-weight:normal" transform="rotate(78.42610364683301,885,455.5)">Pseudomonadati</text><path class="line" d=" M 757.4194163592751,276.7463049794752 A 219.61258799440154,219.61258799440154 0 0 0 885,675.1125879944016"/><line x1="673.307377535821" y1="158.8965718434148" x2="757.4194163592751" y2="276.7463049794752"/><text x="885" y="686.3112681275288" text-anchor="middle" style="font-color:black;font-weight:normal" transform="rotate(72.24184261036467,885,455.5)">Pseudomonadota</text><path class="line" d=" M 697.4905725261979,302.49990305371557 A 242.0099482606562,242.0099482606562 0 0 0 885,697.5099482606562"/><line x1="602.6626999735543" y1="225.12420045982094" x2="697.4905725261979" y2="302.49990305371557"/><text x="885" y="706.2544732501293" text-anchor="middle" style="font-color:black;font-weight:normal" transform="rotate(64.60652591170826,885,455.5)">Alphaproteobacteria</text><path class="line" d=" M 626.2615472176251,475.3530385367053 A 259.49899823960243,259.49899823960243 0 0 0 885,714.9989982396024"/><line x1="521.6679916550498" y1="483.37851703418005" x2="626.2615472176251" y2="475.3530385367053"/><text x="573.0505008801988" y="455.5" text-anchor="end" style="font-color:black;font-weight:normal" transform="rotate(-47.19385796545104,885,455.5)">Candidatus Pelagibacterales&#160;&#160;&#160;24%</text><path class="line" d=" M 743.455111148699,689.5580098716393 A 273.5289884911645,273.5289884911645 0 0 0 885,729.0289884911645"/><line x1="696.4314764883496" y1="767.31608672523" x2="743.455111148699" y2="689.5580098716393"/><path class="line" d=" M 803.6485980508298,728.6752859727476 A 285.0312043713599,285.0312043713599 0 0 0 885,740.5312043713599"/><line x1="780.9957702327405" y1="804.7427238905902" x2="803.6485980508298" y2="728.6752859727476"/><path class="line" d=" M 841.8071145783294,746.9476424031643 A 294.63087688396195,294.63087688396195 0 0 0 885,750.130876883962"/><line x1="831.5789613969902" y1="815.9629698520719" x2="841.8071145783294" y2="746.9476424031643"/><path class="line" d=" M 860.1991167656956,757.2456331793069 A 302.763126803748,302.763126803748 0 0 0 885,758.263126803748"/><line x1="855.1501238080468" y1="818.6753638276211" x2="860.1991167656956" y2="757.2456331793069"/><text x="551.4184365981259" y="455.5" text-anchor="end" style="font-color:black;font-weight:normal" transform="rotate(-87.65067178502879,885,455.5)">Candidatus Pelagibacter sp.&#160;&#160;&#160;1%</text><line x1="1241.15" y1="455.5" x2="1257.65" y2="455.5" class="tick" transform="rotate(96.1151631477927,885,455.5)"/><text x="509.6" y="455.5" text-anchor="end" style="font-color:black;font-weight:normal" transform="rotate(-83.8848368522073,885,455.5)">15 more</text><path class="line" d=" M 845.3155693354104,755.651056827741 A 302.763126803748,302.763126803748 0 0 0 860.1991167656956,757.2456331793069"/><line x1="837.236566299072" y1="816.7561617482767" x2="845.3155693354104" y2="755.651056827741"/><path class="line" d=" M 815.3131883293217,741.7710287342884 A 294.63087688396195,294.63087688396195 0 0 0 841.8071145783294,746.9476424031643"/><line x1="798.8112256211479" y1="809.5605247285714" x2="815.3131883293217" y2="741.7710287342884"/><text x="555.4845615580191" y="455.5" text-anchor="end" style="font-color:black;font-weight:normal" transform="rotate(-78.9443378119002,885,455.5)">Candidatus Pelagibacter communis&#160;&#160;&#160;1%</text><path class="line" d=" M 755.8283022931699,709.5816010200724 A 285.0312043713599,285.0312043713599 0 0 0 803.6485980508298,728.6752859727476"/><line x1="719.859601606839" y1="780.3322779813423" x2="755.8283022931699" y2="709.5816010200724"/><path class="line" d=" M 779.3860939474555,730.5510070182195 A 294.63087688396195,294.63087688396195 0 0 0 800.9087337651791,737.8756585763667"/><line x1="754.3765304825654" y1="795.6835816309009" x2="779.3860939474555" y2="730.5510070182195"/><text x="555.4845615580191" y="455.5" text-anchor="end" style="font-color:black;font-weight:normal" transform="rotate(-71.20537428023033,885,455.5)">Pelagibacteraceae bacterium&#160;&#160;&#160;1%</text><line x1="1241.15" y1="455.5" x2="1257.65" y2="455.5" class="tick" transform="rotate(113.14779270633396,885,455.5)"/><text x="509.6" y="455.5" text-anchor="end" style="font-color:black;font-weight:normal" transform="rotate(-66.85220729366603,885,455.5)">15 more</text><path class="line" d=" M 759.1344734952391,721.8929857392865 A 294.63087688396195,294.63087688396195 0 0 0 779.3860939474555,730.5510070182195"/><line x1="729.3292897763781" y1="784.9753252953446" x2="759.1344734952391" y2="721.8929857392865"/><path class="line" d=" M 708.6460550274132,664.5870479910352 A 273.5289884911645,273.5289884911645 0 0 0 743.455111148699,689.5580098716393"/><line x1="650.0582561559597" y1="734.0493439222598" x2="708.6460550274132" y2="664.5870479910352"/><path class="line" d=" M 723.0729406604725,690.0685718911232 A 285.0312043713599,285.0312043713599 0 0 0 737.5029819894215,699.4004246477956"/><line x1="677.983296150108" y1="755.3857187782141" x2="723.0729406604725" y2="690.0685718911232"/><text x="560.2843978143201" y="455.5" text-anchor="end" style="font-color:black;font-weight:normal" transform="rotate(-57.10940499040307,885,455.5)">Candidatus Pelagibacterales bacterium&#160;&#160;&#160;1%</text><line x1="1241.15" y1="455.5" x2="1257.65" y2="455.5" class="tick" transform="rotate(126.79462571976967,885,455.5)"/><text x="509.6" y="455.5" text-anchor="end" style="font-color:black;font-weight:normal" transform="rotate(-53.20537428023033,885,455.5)">24 more</text><path class="line" d=" M 705.7353815237691,677.1009567397201 A 285.0312043713599,285.0312043713599 0 0 0 723.0729406604725,690.0685718911232"/><line x1="655.8179807301747" y1="738.8071867133013" x2="705.7353815237691" y2="677.1009567397201"/><path class="line" d=" M 625.6236993733671,447.52097997246796 A 259.49899823960243,259.49899823960243 0 0 0 626.2615472176251,475.3530385367053"/><line x1="520.772297428774" y1="444.29550627263677" x2="625.6236993733671" y2="447.52097997246796"/><text x="885" y="722.0139933653835" text-anchor="middle" style="font-color:black;font-weight:normal" transform="rotate(88.68714011516317,885,455.5)">unclassified Alphaproteobacteria</text><path class="line" d=" M 611.4822001467604,457.9740065567414 A 273.5289884911645,273.5289884911645 0 0 0 612.2726763747048,476.4264065998709"/><line x1="520.6149056949406" y1="458.79591387826775" x2="611.4822001467604" y2="457.9740065567414"/><text x="566.0355057544177" y="455.5" text-anchor="end" style="font-color:black;font-weight:normal" transform="rotate(-2.4529750479846295,885,455.5)">Alphaproteobacteria bacterium&#160;&#160;&#160;1%</text><path class="line" d=" M 611.4929410956428,452.0364361579343 A 273.5289884911645,273.5289884911645 0 0 0 611.4822001467604,457.9740065567414"/><line x1="520.6292149708763" y1="450.8857809696485" x2="611.4929410956428" y2="452.0364361579343"/><path class="line" d=" M 626.4383621157435,433.4634507699644 A 259.49899823960243,259.49899823960243 0 0 0 625.6236993733671,447.52097997246796"/><line x1="521.9162829752918" y1="424.555300429289" x2="626.4383621157435" y2="433.4634507699644"/><text x="573.0505008801988" y="455.5" text-anchor="end" style="font-color:black;font-weight:normal" transform="rotate(3.316698656429942,885,455.5)">Rhodobacterales&#160;&#160;&#160;0.9%</text><line x1="1241.15" y1="455.5" x2="1257.65" y2="455.5" class="tick" transform="rotate(187.22072936660268,885,455.5)"/><text x="509.6" y="455.5" text-anchor="end" style="font-color:black;font-weight:normal" transform="rotate(7.220729366602683,885,455.5)">8 more</text><path class="line" d=" M 629.1124351145278,412.35739664391554 A 259.49899823960243,259.49899823960243 0 0 0 626.4383621157435,433.4634507699644"/><line x1="525.6713348535934" y1="394.91724334349294" x2="629.1124351145278" y2="412.35739664391554"/><line x1="1241.15" y1="455.5" x2="1257.65" y2="455.5" class="tick" transform="rotate(220.56046065259116,885,455.5)"/><text x="509.6" y="455.5" text-anchor="end" style="font-color:black;font-weight:normal" transform="rotate(40.56046065259115,885,455.5)">3 more</text><path class="line" d=" M 704.8914014403583,293.85313865711043 A 242.0099482606562,242.0099482606562 0 0 0 697.4905725261979,302.49990305371557"/><line x1="613.8062999606732" y1="212.10456647878618" x2="704.8914014403583" y2="293.85313865711043"/><path class="line" d=" M 793.583511411958,255.81846750430034 A 219.61258799440154,219.61258799440154 0 0 0 757.4194163592751,276.7463049794752"/><line x1="733.3139388971106" y1="124.17131294273582" x2="793.583511411958" y2="255.81846750430034"/><text x="885" y="224.68873187247115" text-anchor="middle" style="font-color:black;font-weight:normal" transform="rotate(329.94241842610364,885,455.5)">FCB...oup</text><path class="line" d=" M 764.7963086499173,245.45265380648215 A 242.0099482606562,242.0099482606562 0 0 0 744.4080114991258,258.51597063087695"/><line x1="704.006510092746" y1="139.2268322933595" x2="764.7963086499173" y2="245.45265380648215"/><text x="885" y="204.7455267498707" text-anchor="middle" style="font-color:black;font-weight:normal" transform="rotate(327.3512476007677,885,455.5)">B...p</text><path class="line" d=" M 755.8381627800179,230.42901143568943 A 259.49899823960243,259.49899823960243 0 0 0 734.248014642786,244.28075608928168"/><line x1="703.625220897756" y1="139.44533778852087" x2="755.8381627800179" y2="230.42901143568943"/><text x="885" y="188.9860066346165" text-anchor="middle" style="font-color:black;font-weight:normal" transform="rotate(327.3166986564299,885,455.5)">Bacteroidota</text><line x1="697.5608453611165" y1="143.0037227289568" x2="744.3028474972207" y2="220.93141978813685"/><path class="line" d=" M 744.3028474972207,220.93141978813685 A 273.5289884911645,273.5289884911645 0 0 0 726.0975057802721,232.8610436699162"/><text x="566.0355057544177" y="455.5" text-anchor="end" style="font-color:black;font-weight:normal" transform="rotate(56.763915547024936,885,455.5)">Flavobacteriales&#160;&#160;&#160;1%</text><path class="line" d=" M 747.4268859643356,219.08564798318673 A 273.5289884911645,273.5289884911645 0 0 0 744.3028474972207,220.93141978813685"/><line x1="701.7227428758783" y1="140.54475393945484" x2="747.4268859643356" y2="219.08564798318673"/><path class="line" d=" M 756.1096890262843,230.27340782124315 A 259.49899823960243,259.49899823960243 0 0 0 755.8381627800179,230.42901143568943"/><path class="line" d=" M 783.2000158094353,235.94231219124606 A 242.0099482606562,242.0099482606562 0 0 0 764.7963086499173,245.45265380648215"/><line x1="731.7173994058801" y1="124.90689003685588" x2="783.2000158094353" y2="235.94231219124606"/><text x="885" y="204.7455267498707" text-anchor="middle" style="font-color:black;font-weight:normal" transform="rotate(332.67178502879085,885,455.5)">F...a</text><line x1="730.9204649454905" y1="125.27756454567447" x2="775.2758370036528" y2="220.3397607117474"/><path class="line" d=" M 775.2758370036528,220.3397607117474 A 259.49899823960243,259.49899823960243 0 0 0 756.1096890262843,230.27340782124315"/><text x="573.0505008801988" y="455.5" text-anchor="end" style="font-color:black;font-weight:normal" transform="rotate(62.60268714011513,885,455.5)">Fidelibacterota bacterium&#160;&#160;&#160;1%</text><path class="line" d=" M 783.99503060841,235.57544199128316 A 242.0099482606562,242.0099482606562 0 0 0 783.2000158094353,235.94231219124606"/><line x1="732.9144716536473" y1="124.35448505587345" x2="783.99503060841" y2="235.57544199128316"/><path class="line" d=" M 798.6693605012489,253.5675620675682 A 219.61258799440154,219.61258799440154 0 0 0 793.583511411958,255.81846750430034"/><path class="line" d=" M 869.4422372118017,266.212911349665 A 189.92536932356782,189.92536932356782 0 0 0 810.339532034666,280.86477893651875"/><line x1="855.1501238080469" y1="92.32463617237875" x2="869.4422372118017" y2="266.212911349665"/><text x="885" y="244.7935776068486" text-anchor="middle" style="font-color:black;font-weight:normal" transform="rotate(346.0767754318618,885,455.5)">Bacillati</text><line x1="834.1886161947875" y1="94.65992008120912" x2="854.3775535207477" y2="238.03286552395073"/><path class="line" d=" M 854.3775535207477,238.03286552395073 A 219.61258799440154,219.61258799440154 0 0 0 798.6693605012489,253.5675620675682"/><text x="885" y="224.68873187247115" text-anchor="middle" style="font-color:black;font-weight:normal" transform="rotate(344.4184261036469,885,455.5)">Cyan...iota</text><path class="line" d=" M 844.9089181815457,216.8338729191939 A 242.0099482606562,242.0099482606562 0 0 0 789.8648632156971,232.97332563003266"/><line x1="824.6339269536558" y1="96.13486921382673" x2="844.9089181815457" y2="216.8338729191939"/><text x="885" y="204.7455267498707" text-anchor="middle" style="font-color:black;font-weight:normal" transform="rotate(343.658349328215,885,455.5)">Cyan...ceae</text><path class="line" d=" M 841.3945723842509,199.69089779719556 A 259.49899823960243,259.49899823960243 0 0 0 782.9898435153395,216.89225062598604"/><line x1="823.7673249955767" y1="96.28151563177784" x2="841.3945723842509" y2="199.69089779719556"/><text x="885" y="188.9860066346165" text-anchor="middle" style="font-color:black;font-weight:normal" transform="rotate(343.58925143953934,885,455.5)">Synec...cales</text><path class="line" d=" M 834.4912416982318,186.67482841107835 A 273.5289884911645,273.5289884911645 0 0 0 777.4745948602421,203.99175998681372"/><line x1="817.7113677175796" y1="97.36650538442905" x2="834.4912416982318" y2="186.67482841107835"/><path class="line" d=" M 827.9821176980323,176.2299719569125 A 285.0312043713599,285.0312043713599 0 0 0 772.9530250283011,193.4155424961652"/><line x1="812.105116940927" y1="98.46541340676242" x2="827.9821176980323" y2="176.2299719569125"/><text x="560.2843978143201" y="455.5" text-anchor="end" style="font-color:black;font-weight:normal" transform="rotate(72.65642994241841,885,455.5)">Prochlorococcus&#160;&#160;&#160;3%</text><path class="line" d=" M 778.0604976463165,180.9616667025188 A 294.63087688396195,294.63087688396195 0 0 0 769.1793530609517,184.58870205169984"/><line x1="752.7370305861399" y1="115.95049415169473" x2="778.0604976463165" y2="180.9616667025188"/><path class="line" d=" M 834.8154776525882,186.61411107727923 A 273.5289884911645,273.5289884911645 0 0 0 834.4912416982318,186.67482841107835"/><line x1="818.1433204053707" y1="97.28561671314611" x2="834.8154776525882" y2="186.61411107727923"/><path class="line" d=" M 841.7031061292304,199.63849631392281 A 259.49899823960243,259.49899823960243 0 0 0 841.3945723842509,199.69089779719556"/><line x1="824.2005817612414" y1="96.20793114538628" x2="841.7031061292304" y2="199.63849631392281"/><line x1="1241.15" y1="455.5" x2="1257.65" y2="455.5" class="tick" transform="rotate(263.64299424184264,885,455.5)"/><text x="509.6" y="455.5" text-anchor="end" style="font-color:black;font-weight:normal" transform="rotate(83.64299424184264,885,455.5)">3 more</text><path class="line" d=" M 867.0104046053038,236.625462277738 A 219.61258799440154,219.61258799440154 0 0 0 854.3775535207477,238.03286552395073"/><path class="line" d=" M 874.6979313516237,265.85424261466386 A 189.92536932356782,189.92536932356782 0 0 0 869.4422372118017,266.212911349665"/><line x1="865.233952795044" y1="91.63647698911694" x2="874.6979313516237" y2="265.85424261466386"/><path class="line" d=" M 995.5851586912497,356.00914210891557 A 148.75317854309148,148.75317854309148 0 0 0 969.9494623777865,333.38899734914185"/><line x1="1155.8999714948473" y1="211.7776878410782" x2="995.5851586912497" y2="356.00914210891557"/><text x="885" y="277.92628791057507" text-anchor="middle" style="font-color:black;font-weight:normal" transform="rotate(401.4241842610365,885,455.5)">Eukaryota</text><line x1="1137.8875262748336" y1="193.13525569429999" x2="1016.8050406835105" y2="318.75543095569833"/><path class="line" d=" M 1016.8050406835105,318.75543095569833 A 189.92536932356782,189.92536932356782 0 0 0 993.4619379159407,299.5908792398204"/><text x="885" y="256.66846507518204" text-anchor="middle" style="font-color:black;font-weight:normal" transform="rotate(399.38579654510556,885,455.5)">Haptophyta</text><path class="line" d=" M 1033.744686465672,293.930488476855 A 219.61258799440154,219.61258799440154 0 0 0 1010.4156144039262,275.22073755064207"/><line x1="1131.8099130523092" y1="187.41003968982437" x2="1033.744686465672" y2="293.930488476855"/><text x="885" y="224.68873187247115" text-anchor="middle" style="font-color:black;font-weight:normal" transform="rotate(398.72936660268715,885,455.5)">Prymnesiophyceae</text><line x1="1105.5375476878057" y1="165.4128578170883" x2="1031.4661923859985" y2="262.84364909229396"/><path class="line" d=" M 1031.4661923859985,262.84364909229396 A 242.0099482606562,242.0099482606562 0 0 0 1023.2062231958503,256.83481702355516"/><text x="1188.204974130328" y="455.5" text-anchor="start" style="font-color:black;font-weight:normal" transform="rotate(306.03454894433787,885,455.5)">0.7%&#160;&#160;&#160;Chrysochromulina</text><line x1="1241.15" y1="455.5" x2="1257.65" y2="455.5" class="tick" transform="rotate(308.3493282149712,885,455.5)"/><text x="1260.4" y="455.5" text-anchor="start" style="font-color:black;font-weight:normal" transform="rotate(308.3493282149712,885,455.5)">3 more</text><path class="line" d=" M 1038.7901995259372,268.6380467112208 A 242.0099482606562,242.0099482606562 0 0 0 1031.4661923859985,262.84364909229396"/><line x1="1116.5654753452222" y1="174.13761689212748" x2="1038.7901995259372" y2="268.6380467112208"/><path class="line" d=" M 1033.9394287657778,294.1099898862308 A 219.61258799440154,219.61258799440154 0 0 0 1033.744686465672,293.930488476855"/><line x1="1132.133046142296" y1="187.70788378962726" x2="1033.9394287657778" y2="294.1099898862308"/><line x1="1241.15" y1="455.5" x2="1257.65" y2="455.5" class="tick" transform="rotate(315.5355086372361,885,455.5)"/><text x="1260.4" y="455.5" text-anchor="start" style="font-color:black;font-weight:normal" transform="rotate(315.5355086372361,885,455.5)">4 more</text><path class="line" d=" M 1024.1843379556742,326.2739732850449 A 189.92536932356782,189.92536932356782 0 0 0 1016.8050406835105,318.75543095569833"/><line x1="1152.0458029471579" y1="207.5606946684176" x2="1024.1843379556742" y2="326.2739732850449"/><path class="line" d=" M 998.1855892365699,358.97782370955713 A 148.75317854309148,148.75317854309148 0 0 0 995.5851586912497,356.00914210891557"/><line x1="1162.2702346380993" y1="219.0500539570091" x2="998.1855892365699" y2="358.97782370955713"/><line x1="1241.2686045938965" y1="378.94909288115633" x2="971.0363260270661" y2="437.013502122782"/><path class="line" d=" M 971.0363260270661,437.013502122782 A 88,88 0 0 0 967.1328716250065,423.90583283847786"/><text x="885" y="319.76535971614237" text-anchor="middle" style="font-color:black;font-weight:normal" transform="rotate(433.4165067178502,885,455.5)">unclassified sequences</text><line x1="1007.6446402838576" y1="455.5" x2="1015.3446402838576" y2="455.5" class="tick" transform="rotate(343.41650671785027,885,455.5)"/><path class="line" d=" M 1030.3580341448792,423.90015765531393 A 148.75317854309148,148.75317854309148 0 0 0 1023.8355195124022,402.0939455829752"/><line x1="1241.0829298652586" y1="378.09000672669396" x2="1030.3580341448792" y2="423.90015765531393"/><text x="885" y="294.39516422276563" text-anchor="middle" style="font-color:black;font-weight:normal" transform="rotate(433.3474088291747,885,455.5)">metagenomes</text><path class="line" d=" M 1067.1879979994796,401.84201552764716 A 189.92536932356782,189.92536932356782 0 0 0 1062.2626815566425,387.31211515201556"/><line x1="1234.5547051321287" y1="352.5491956321338" x2="1067.1879979994796" y2="401.84201552764716"/><text x="885" y="244.7935776068486" text-anchor="middle" style="font-color:black;font-weight:normal" transform="rotate(431.27447216890596,885,455.5)">ecological metagenomes</text><path class="line" d=" M 1095.515524775766,392.9468015687234 A 219.61258799440154,219.61258799440154 0 0 0 1089.9705965565865,376.65367254693626"/><line x1="1234.3053741994272" y1="351.70637998702387" x2="1095.515524775766" y2="392.9468015687234"/><text x="1177.0062939972008" y="455.5" text-anchor="start" style="font-color:black;font-weight:normal" transform="rotate(341.20537428023033,885,455.5)">1%&#160;&#160;&#160;marine metagenome</text><path class="line" d=" M 1095.6657888026527,393.4547404409099 A 219.61258799440154,219.61258799440154 0 0 0 1095.515524775766,392.9468015687234"/><path class="line" d=" M 1070.5905103306184,415.15389253082446 A 189.92536932356782,189.92536932356782 0 0 0 1067.1879979994796,401.84201552764716"/><text x="1162.162684661784" y="455.5" text-anchor="start" style="font-color:black;font-weight:normal" transform="rotate(345.662188099808,885,455.5)">1%&#160;&#160;&#160;viral metagenome</text><path class="line" d=" M 1030.4338291669976,424.25084864356484 A 148.75317854309148,148.75317854309148 0 0 0 1030.3580341448792,423.90015765531393"/><path class="line" d=" M 971.6301209518214,440.0331921886641 A 88,88 0 0 0 971.0363260270661,437.013502122782"/><line x1="1243.7274553959512" y1="391.4533549266953" x2="971.6301209518214" y2="440.0331921886641"/></svg>